####
#
# OBJ File Generated by Meshlab
#
####
# Object digitv2_fixed.obj
#
# Vertices: 198
# Faces: 392
#
####
vn -0.750304 2.953260 -2.663335
v -0.008602 0.013931 -0.003997
vn -1.357599 4.850762 2.044561
v -0.008582 0.013918 0.019903
vn -0.412883 5.471494 2.004682
v -0.007192 0.014012 0.019910
vn 0.084232 5.866338 1.541652
v 0.000436 0.014045 0.019904
vn -1.982837 2.583454 -2.816511
v -0.010315 0.013019 -0.003973
vn -3.010089 4.033388 2.109624
v -0.010281 0.013065 0.019902
vn -3.106249 0.333355 -2.973532
v -0.016309 0.002407 -0.003997
vn -2.914538 1.061414 -2.834635
v -0.015666 0.005652 -0.003995
vn -2.530387 1.840978 -2.882876
v -0.013442 0.009716 -0.003990
vn -4.766749 1.694512 2.139797
v -0.015691 0.005547 0.019904
vn -5.111999 0.340875 2.179216
v -0.016513 0.001143 0.019916
vn -3.168979 -0.346088 -2.915667
v -0.016373 -0.001718 -0.003968
vn -4.136320 2.983143 2.168605
v -0.013439 0.009711 0.019910
vn -2.891378 4.546300 2.392101
v -0.006712 0.010012 0.023989
vn -2.073603 5.164801 2.158015
v -0.004624 0.011089 0.024024
vn 0.644222 6.008799 1.334130
v 0.001179 0.011895 0.024201
vn -0.784126 5.816909 1.745043
v -0.002408 0.011763 0.024020
vn -1.151857 5.987350 0.744523
v -0.002340 0.011768 0.037977
vn -0.148541 6.072658 0.879941
v -0.000024 0.011943 0.038491
vn -3.774748 3.751388 2.433091
v -0.008493 0.008515 0.024029
vn -3.491240 5.162850 0.226005
v -0.006712 0.009968 0.036975
vn -2.376569 5.635985 0.751926
v -0.004755 0.011013 0.038039
vn -5.001453 3.453336 0.863438
v -0.009940 0.006730 0.038369
vn -4.437727 2.952025 2.432360
v -0.010003 0.006676 0.024031
vn -5.579946 2.434565 0.865257
v -0.011011 0.004761 0.038408
vn -5.144358 -0.695107 2.197150
v -0.016369 -0.001739 0.019906
vn -5.329157 -0.005318 2.440259
v -0.012039 0.000029 0.024021
vn -5.220010 1.025704 2.440256
v -0.011807 0.002314 0.024030
vn -6.051587 0.245331 0.897396
v -0.011989 0.000214 0.038573
vn -3.285497 5.040459 1.383831
v -0.006574 0.009786 0.039294
vn -1.713783 5.338851 2.365105
v -0.003388 0.010441 0.041966
vn 0.534832 5.611626 2.224215
v 0.001082 0.011185 0.041425
vn -4.318687 4.306839 0.816055
v -0.008521 0.008446 0.038222
vn -3.637195 4.360469 2.348099
v -0.007170 0.008446 0.041612
vn -3.881187 3.316828 3.422823
v -0.007605 0.006534 0.043608
vn -2.388343 4.480980 3.433275
v -0.004570 0.008776 0.043857
vn -2.722476 3.400763 4.367813
v -0.005084 0.006808 0.045468
vn -1.234072 4.151940 4.382353
v -0.002569 0.008051 0.045531
vn -0.473806 5.118686 3.344446
v -0.000981 0.010068 0.043504
vn 0.437178 4.356702 4.334229
v 0.001011 0.008439 0.045479
vn -4.750407 3.120148 2.316764
v -0.009260 0.006152 0.041543
vn -1.996879 2.815223 5.091088
v -0.003740 0.005557 0.046969
vn -5.450241 1.443918 2.380239
v -0.010677 0.002872 0.041746
vn -4.818209 1.545060 3.467459
v -0.009403 0.002961 0.043904
vn -3.804101 2.185579 4.298276
v -0.007586 0.004032 0.045415
vn -4.912013 2.048890 2.442407
v -0.011129 0.004571 0.024030
vn -5.927163 1.352061 0.892762
v -0.011631 0.002858 0.038506
vn -4.303410 0.485012 4.395299
v -0.008387 0.001044 0.045534
vn -3.106837 1.400420 5.095319
v -0.006319 0.002643 0.046888
vn -5.596170 -0.524774 2.280701
v -0.011182 -0.001090 0.041537
vn -5.033816 -0.357279 3.490563
v -0.009972 -0.000837 0.043713
vn -3.403756 -0.353656 5.137579
v -0.006670 -0.000704 0.046952
vn -1.268919 1.915179 5.651004
v -0.002627 0.003825 0.048107
vn -2.340886 0.192758 5.670940
v -0.004673 0.000318 0.048066
vn 0.934323 2.119685 5.661230
v 0.001872 0.004127 0.048121
vn 0.650158 1.030943 6.015441
v 0.001250 0.002076 0.048753
vn -0.873973 0.893791 6.044139
v -0.001716 0.001694 0.048738
vn -1.024201 -0.615338 6.044039
v -0.002121 -0.001109 0.048753
vn 0.606810 3.319807 -2.741544
v 0.007968 0.014020 -0.003941
vn 1.046227 5.095819 1.970227
v 0.008013 0.014012 0.019910
vn 2.435530 4.473020 2.132968
v 0.009289 0.013552 0.019898
vn 2.632160 1.692961 -2.988758
v 0.013863 0.008949 -0.003996
vn 1.521996 2.716437 -2.896176
v 0.009513 0.013388 -0.003997
vn 2.268694 2.298594 -2.861324
v 0.011742 0.011736 -0.003980
vn 3.522309 3.640407 2.190776
v 0.011765 0.011719 0.019904
vn 4.281108 2.850133 2.238322
v 0.013542 0.009477 0.019908
vn 2.895421 1.144763 -2.904009
v 0.015482 0.005956 -0.003993
vn 5.039556 0.697569 2.189666
v 0.016420 0.002422 0.019906
vn 3.206956 0.444996 -2.901081
v 0.016378 0.002596 -0.003964
vn 1.713938 5.426094 2.000079
v 0.004536 0.011097 0.024017
vn 1.242117 5.961538 0.825742
v 0.002345 0.011727 0.038453
vn 2.290533 5.613526 0.900852
v 0.004295 0.011146 0.038446
vn 2.950925 4.501900 2.377635
v 0.006599 0.009995 0.024035
vn 3.759361 3.773063 2.437799
v 0.008458 0.008479 0.024027
vn 4.439977 2.942538 2.430363
v 0.009950 0.006647 0.024028
vn 4.724982 1.894411 2.204492
v 0.015470 0.005950 0.019919
vn 4.900415 2.052664 2.446604
v 0.011049 0.004591 0.024023
vn 5.619767 2.395027 0.768864
v 0.010891 0.004878 0.038432
vn 4.957432 3.507720 0.879176
v 0.009818 0.006804 0.038497
vn 5.221149 0.923637 2.497804
v 0.011732 0.002354 0.024027
vn 5.308938 -0.523857 2.452263
v 0.011857 -0.001215 0.024124
vn 6.097935 0.005907 0.767648
v 0.011931 0.000064 0.038357
vn 5.014978 -0.633259 2.195165
v 0.016480 -0.002525 0.019909
vn 1.536975 4.873166 3.395449
v 0.002826 0.009514 0.043757
vn 2.623100 5.061585 2.229586
v 0.005150 0.009909 0.041362
vn 3.184925 3.990422 3.421612
v 0.006345 0.007659 0.043680
vn 1.864691 3.983815 4.359339
v 0.003222 0.007834 0.045440
vn 4.414943 4.411941 0.174437
v 0.008442 0.008481 0.037033
vn 3.384551 5.215903 0.266208
v 0.006630 0.009978 0.036946
vn 3.881391 4.641132 1.112802
v 0.007723 0.008995 0.038875
vn 4.052001 4.021764 2.329946
v 0.007798 0.007829 0.041569
vn 2.169371 2.565702 5.170457
v 0.004199 0.005156 0.046940
vn 0.943267 3.317019 5.136287
v 0.001787 0.006515 0.046884
vn 5.066922 2.502095 2.329947
v 0.009950 0.004970 0.041541
vn 4.237196 2.828511 3.490466
v 0.008258 0.005538 0.043627
vn 3.142845 2.886963 4.388368
v 0.006085 0.005740 0.045607
vn 4.816931 1.461418 3.472471
v 0.009345 0.003052 0.043848
vn 3.142757 1.254425 5.106322
v 0.006195 0.002420 0.046976
vn 4.133544 1.182441 4.390024
v 0.007979 0.002355 0.045592
vn 5.800550 1.191059 1.658077
v 0.011376 0.002322 0.039944
vn 6.090034 1.265668 0.258662
v 0.011721 0.002378 0.037016
vn 3.392845 -0.324008 5.127192
v 0.006541 -0.000687 0.046985
vn 2.138182 0.843399 5.695590
v 0.004238 0.001596 0.048072
vn 4.239153 -0.501034 4.421543
v 0.008260 -0.000973 0.045591
vn 5.022097 -0.444317 3.440387
v 0.009882 -0.000964 0.043736
vn 5.669775 0.079391 2.396037
v 0.011045 0.000000 0.041559
vn 0.748446 -0.810122 6.008105
v 0.001526 -0.001624 0.048819
vn 2.106763 -0.878682 5.693996
v 0.004074 -0.001839 0.048137
vn -2.978480 -1.123353 -2.858942
v -0.015427 -0.005931 -0.003960
vn -1.998418 -2.354758 -2.744161
v -0.011571 -0.011963 -0.003962
vn -2.588862 -1.731145 -2.977386
v -0.013349 -0.009708 -0.003981
vn -2.626226 -4.622627 2.286016
v -0.010658 -0.012446 0.019909
vn -0.768611 -2.945449 -2.635946
v -0.008013 -0.013940 -0.003966
vn -1.361743 -4.785486 1.964977
v -0.008098 -0.013909 0.019921
vn -5.246327 -1.038954 2.417249
v -0.011806 -0.002341 0.024027
vn -6.006743 -1.106719 0.807529
v -0.011795 -0.002122 0.038558
vn -4.932000 -2.058322 2.419716
v -0.011119 -0.004599 0.024029
vn -5.646738 -2.166893 0.958758
v -0.011245 -0.004138 0.038573
vn -4.767541 -1.816501 2.135830
v -0.015423 -0.005954 0.019904
vn -4.452832 -2.959011 2.413552
v -0.010017 -0.006655 0.024028
vn -4.305226 -2.869655 2.222971
v -0.013355 -0.009693 0.019908
vn -3.772103 -3.779504 2.418554
v -0.008522 -0.008487 0.024023
vn -4.409613 -4.398927 0.207047
v -0.008521 -0.008484 0.036961
vn -2.880589 -4.638513 2.299469
v -0.006661 -0.010026 0.024006
vn -3.191654 -3.772141 2.107008
v -0.011594 -0.011935 0.019916
vn -2.406235 -5.740510 0.292211
v -0.004632 -0.011084 0.036958
vn -3.318485 -5.083476 0.872149
v -0.006697 -0.009934 0.038511
vn -1.530899 -5.495817 2.073615
v -0.003599 -0.011595 0.023892
vn -0.315663 -5.543361 1.967956
v -0.006868 -0.013948 0.019906
vn -0.058114 -5.966885 1.534832
v -0.000035 -0.012000 0.024034
vn -4.193907 -1.311731 4.293428
v -0.008148 -0.002452 0.045497
vn -4.988070 -2.015069 2.979140
v -0.009758 -0.003813 0.042852
vn -3.014302 -1.615054 5.146386
v -0.005911 -0.003237 0.046931
vn -4.791735 -3.096567 2.313730
v -0.009253 -0.006147 0.041562
vn -3.450584 -2.728724 4.298649
v -0.006665 -0.005419 0.045418
vn -3.906695 -3.225641 3.468341
v -0.007611 -0.006357 0.043805
vn -2.093753 -2.712494 5.141204
v -0.004210 -0.005122 0.046993
vn -2.412047 -3.644746 4.380115
v -0.004736 -0.007037 0.045459
vn -0.725717 -2.175578 5.702991
v -0.001670 -0.004365 0.048052
vn -0.576410 -3.307815 5.151831
v -0.001218 -0.006452 0.047038
vn -5.090536 -3.324584 0.824625
v -0.010019 -0.006598 0.038423
vn -4.333642 -4.241472 1.302970
v -0.008357 -0.008321 0.039302
vn -3.577925 -4.396969 2.361197
v -0.007015 -0.008642 0.041598
vn -2.408589 -4.563532 3.299566
v -0.004865 -0.008998 0.043358
vn -1.303814 -4.136661 4.366877
v -0.002580 -0.008076 0.045487
vn -0.419273 -5.066821 3.414088
v -0.000912 -0.009969 0.043647
vn -2.160753 -5.298508 2.319545
v -0.004287 -0.010230 0.041561
vn -1.750700 -5.771044 1.261396
v -0.003505 -0.011250 0.039322
vn 0.007623 -6.057241 0.888769
v -0.000045 -0.011970 0.038324
vn -1.193925 -6.108148 0.312857
v -0.002387 -0.011761 0.037015
vn -1.938506 -1.373825 5.711541
v -0.003695 -0.002755 0.048063
vn -0.020506 -0.000053 6.217488
v -0.000039 -0.000012 0.048954
vn 3.107760 -0.369678 -2.860720
v 0.016483 -0.002568 -0.003968
vn 2.920176 -1.073167 -2.968167
v 0.015860 -0.004883 -0.003987
vn 4.840849 -1.707994 2.242807
v 0.015876 -0.004838 0.019902
vn 2.742127 -1.539464 -3.002482
v 0.014666 -0.007436 -0.003960
vn 4.567810 -2.477064 2.230623
v 0.014735 -0.007326 0.019904
vn 3.804470 -3.554986 2.230711
v 0.012015 -0.011148 0.019905
vn 2.396606 -2.011878 -2.899674
v 0.012591 -0.010608 -0.003962
vn 4.229528 -3.057445 2.239652
v 0.013309 -0.009563 0.019903
vn 4.945269 -1.945196 2.485368
v 0.011051 -0.004591 0.024036
vn 4.438195 -2.976633 2.417051
v 0.009954 -0.006640 0.024034
vn 2.972422 -4.481161 2.384277
v 0.006651 -0.009961 0.024026
vn 3.789093 -3.771646 2.418969
v 0.008457 -0.008472 0.024029
vn 4.303537 -4.329050 0.785810
v 0.008504 -0.008383 0.038280
vn 2.485456 -5.696786 0.273039
v 0.004611 -0.011057 0.036975
vn 2.084831 -5.069990 2.269244
v 0.004607 -0.011071 0.024023
vn 1.217115 -6.101560 0.283680
v 0.002336 -0.011759 0.036988
vn 1.003678 -5.658238 1.930601
v 0.002364 -0.011772 0.024021
vn 1.310308 -5.001428 1.866836
v 0.008016 -0.013979 0.019906
vn 2.860428 -4.208342 2.107835
v 0.009951 -0.013076 0.019906
vn 5.927714 -1.224141 1.399413
v 0.011433 -0.002079 0.039611
vn 5.849218 -0.982775 1.998990
v 0.011161 -0.002070 0.040510
vn 6.049837 -1.293877 0.510427
v 0.011644 -0.002569 0.037820
vn 2.817309 -2.002769 5.049113
v 0.005538 -0.003864 0.046924
vn 3.795332 -2.202205 4.277660
v 0.007384 -0.004195 0.045437
vn 4.438978 -2.414691 3.446824
v 0.008796 -0.004632 0.043700
vn 5.918666 -1.016459 1.794289
v 0.011354 -0.002080 0.039872
vn 5.305269 -1.920295 2.354702
v 0.010393 -0.003696 0.041720
vn 5.919537 -1.005140 1.795718
v 0.011314 -0.002080 0.040005
vn 5.683078 -2.140881 0.909210
v 0.011096 -0.004309 0.038502
vn 5.918957 -1.001527 1.798663
v 0.011274 -0.002080 0.040137
vn 2.416289 -3.695177 4.190920
v 0.004656 -0.007348 0.045315
vn 4.389316 -3.614655 2.335088
v 0.008498 -0.007053 0.041560
vn 5.070109 -3.316221 0.868245
v 0.009934 -0.006652 0.038404
vn 1.280671 -3.220414 5.044881
v 0.002540 -0.006400 0.046849
vn 0.411452 -4.275650 4.399493
v 0.000733 -0.008307 0.045619
vn 1.451525 -4.876508 3.452700
v 0.002771 -0.009533 0.043687
vn 1.463068 -5.443578 2.268305
v 0.002946 -0.010790 0.041449
vn 3.115585 -4.748984 2.341231
v 0.006103 -0.009214 0.041572
vn 3.268455 -3.852715 3.450557
v 0.006239 -0.007697 0.043737
vn 1.815200 -5.764934 1.192412
v 0.003447 -0.011266 0.039214
vn 3.384243 -4.986934 1.029019
v 0.006734 -0.009790 0.038808
vn 0.906943 -2.207035 5.673959
v 0.001827 -0.004246 0.048046
vn -0.395475 3.315024 5.179197
v -0.000839 0.006628 0.046950
vn -0.589780 -5.597746 2.392718
v -0.001312 -0.010918 0.041851
vn 1.731061 -2.559907 -2.841752
v 0.009945 -0.013060 -0.003985
vn 0.662677 -3.010483 -2.694888
v 0.008020 -0.013979 -0.003962
# 198 vertices, 0 vertices normals

f 1//1 2//2 3//3
f 1//1 3//3 4//4
f 5//5 6//6 1//1
f 7//7 8//8 9//9
f 10//10 7//7 11//11
f 11//11 7//7 12//12
f 9//9 13//13 6//6
f 2//2 6//6 14//14
f 3//3 14//14 15//15
f 16//16 17//17 18//18
f 16//16 18//18 19//19
f 6//6 20//20 14//14
f 14//14 21//21 22//22
f 14//14 20//20 21//21
f 23//23 24//24 25//25
f 11//11 12//12 26//26
f 27//27 28//28 11//11
f 28//28 27//27 29//29
f 22//22 30//30 31//31
f 32//32 19//19 18//18
f 32//32 18//18 31//31
f 21//21 20//20 33//33
f 33//33 23//23 34//34
f 34//34 35//35 36//36
f 30//30 34//34 31//31
f 36//36 37//37 38//38
f 39//39 36//36 38//38
f 40//40 39//39 38//38
f 23//23 25//25 41//41
f 38//38 37//37 42//42
f 41//41 25//25 43//43
f 41//41 43//43 44//44
f 35//35 41//41 44//44
f 35//35 44//44 45//45
f 25//25 46//46 47//47
f 45//45 44//44 48//48
f 49//49 45//45 48//48
f 47//47 28//28 29//29
f 47//47 29//29 50//50
f 43//43 50//50 51//51
f 52//52 49//49 48//48
f 53//53 49//49 54//54
f 55//55 53//53 56//56
f 56//56 53//53 57//57
f 57//57 54//54 58//58
f 59//59 60//60 61//61
f 62//62 63//63 64//64
f 64//64 65//65 66//66
f 62//62 64//64 66//66
f 62//62 1//1 63//63
f 67//67 62//62 66//66
f 67//67 1//1 62//62
f 60//60 59//59 4//4
f 68//68 69//69 67//67
f 70//70 60//60 4//4
f 4//4 16//16 70//70
f 64//64 63//63 65//65
f 70//70 71//71 72//72
f 73//73 70//70 72//72
f 74//74 61//61 73//73
f 75//75 66//66 74//74
f 76//76 67//67 66//66
f 77//77 66//66 75//75
f 78//78 75//75 79//79
f 80//80 76//76 77//77
f 68//68 80//80 81//81
f 82//82 81//81 80//80
f 83//83 68//68 81//81
f 16//16 19//19 71//71
f 32//32 39//39 84//84
f 71//71 32//32 85//85
f 86//86 85//85 84//84
f 86//86 84//84 87//87
f 88//88 89//89 90//90
f 91//91 90//90 85//85
f 91//91 85//85 86//86
f 92//92 87//87 93//93
f 91//91 79//79 90//90
f 79//79 91//91 94//94
f 95//95 94//94 91//91
f 96//96 97//97 95//95
f 96//96 98//98 99//99
f 100//100 101//101 78//78
f 102//102 98//98 103//103
f 98//98 104//104 99//99
f 99//99 105//105 97//97
f 82//82 100//100 106//106
f 106//106 100//100 97//97
f 82//82 80//80 101//101
f 103//103 55//55 56//56
f 103//103 107//107 108//108
f 103//103 56//56 107//107
f 26//26 12//12 109//109
f 109//109 12//12 7//7
f 110//110 111//111 1//1
f 112//112 110//110 113//113
f 112//112 113//113 114//114
f 27//27 115//115 116//116
f 115//115 117//117 118//118
f 115//115 119//119 117//117
f 120//120 119//119 121//121
f 120//120 122//122 123//123
f 123//123 122//122 124//124
f 112//112 122//122 125//125
f 126//126 127//127 124//124
f 128//128 124//124 129//129
f 126//126 124//124 128//128
f 124//124 114//114 129//129
f 128//128 129//129 130//130
f 29//29 27//27 116//116
f 48//48 51//51 131//131
f 48//48 131//131 52//52
f 50//50 118//118 132//132
f 51//51 50//50 132//132
f 52//52 131//131 133//133
f 132//132 118//118 134//134
f 135//135 131//131 136//136
f 137//137 135//135 138//138
f 139//139 137//137 140//140
f 141//141 123//123 142//142
f 143//143 136//136 134//134
f 144//144 136//136 143//143
f 144//144 138//138 136//136
f 140//140 138//138 145//145
f 137//137 138//138 140//140
f 123//123 127//127 142//142
f 145//145 138//138 144//144
f 146//146 145//145 144//144
f 147//147 127//127 148//148
f 149//149 148//148 150//150
f 54//54 133//133 151//151
f 107//107 152//152 58//58
f 133//133 137//137 151//151
f 68//68 153//153 69//69
f 153//153 67//67 69//69
f 153//153 1//1 67//67
f 154//154 153//153 155//155
f 154//154 1//1 153//153
f 156//156 154//154 157//157
f 156//156 1//1 154//154
f 158//158 159//159 160//160
f 157//157 155//155 161//161
f 157//157 161//161 162//162
f 161//161 155//155 81//81
f 157//157 154//154 155//155
f 163//163 164//164 165//165
f 158//158 160//160 162//162
f 162//162 164//164 158//158
f 160//160 156//156 157//157
f 166//166 167//167 163//163
f 168//168 130//130 169//169
f 169//169 130//130 170//170
f 169//169 170//170 167//167
f 163//163 170//170 171//171
f 172//172 106//106 173//173
f 174//174 81//81 82//82
f 175//175 102//102 108//108
f 176//176 104//104 175//175
f 176//176 177//177 104//104
f 178//178 179//179 172//172
f 180//180 179//179 178//178
f 179//179 181//181 174//174
f 179//179 180//180 182//182
f 179//179 182//182 173//173
f 177//177 176//176 183//183
f 177//177 184//184 179//179
f 181//181 161//161 174//174
f 185//185 161//161 181//181
f 186//186 140//140 187//187
f 186//186 187//187 183//183
f 186//186 183//183 175//175
f 185//185 181//181 179//179
f 187//187 146//146 188//188
f 189//189 190//190 188//188
f 191//191 183//183 188//188
f 184//184 165//165 185//185
f 192//192 149//149 168//168
f 166//166 168//168 167//167
f 193//193 166//166 163//163
f 194//194 107//107 139//139
f 108//108 194//194 175//175
f 194//194 139//139 140//140
f 59//59 1//1 4//4
f 6//6 5//5 9//9
f 5//5 1//1 9//9
f 1//1 7//7 9//9
f 10//10 9//9 8//8
f 10//10 8//8 7//7
f 2//2 1//1 6//6
f 3//3 2//2 14//14
f 17//17 4//4 3//3
f 17//17 3//3 15//15
f 16//16 4//4 17//17
f 15//15 14//14 22//22
f 17//17 15//15 18//18
f 13//13 9//9 10//10
f 20//20 6//6 13//13
f 20//20 13//13 24//24
f 23//23 20//20 24//24
f 24//24 13//13 10//10
f 24//24 10//10 46//46
f 46//46 10//10 28//28
f 25//25 24//24 46//46
f 28//28 10//10 11//11
f 47//47 46//46 28//28
f 26//26 27//27 11//11
f 18//18 15//15 22//22
f 22//22 21//21 30//30
f 18//18 22//22 31//31
f 39//39 31//31 36//36
f 39//39 32//32 31//31
f 20//20 23//23 33//33
f 34//34 30//30 33//33
f 21//21 33//33 30//30
f 36//36 31//31 34//34
f 34//34 23//23 41//41
f 35//35 34//34 41//41
f 37//37 36//36 35//35
f 45//45 37//37 35//35
f 195//195 38//38 42//42
f 38//38 195//195 40//40
f 42//42 37//37 45//45
f 49//49 42//42 45//45
f 53//53 42//42 49//49
f 53//53 195//195 42//42
f 43//43 25//25 47//47
f 50//50 43//43 47//47
f 51//51 44//44 43//43
f 48//48 44//44 51//51
f 55//55 195//195 53//53
f 52//52 54//54 49//49
f 57//57 53//53 54//54
f 152//152 56//56 57//57
f 152//152 57//57 58//58
f 59//59 63//63 1//1
f 63//63 59//59 61//61
f 65//65 63//63 61//61
f 65//65 61//61 74//74
f 70//70 16//16 71//71
f 73//73 60//60 70//70
f 61//61 60//60 73//73
f 74//74 73//73 89//89
f 65//65 74//74 66//66
f 79//79 75//75 74//74
f 78//78 77//77 75//75
f 77//77 76//76 66//66
f 77//77 101//101 80//80
f 76//76 80//80 68//68
f 68//68 67//67 76//76
f 32//32 71//71 19//19
f 84//84 85//85 32//32
f 72//72 71//71 85//85
f 89//89 73//73 72//72
f 90//90 89//89 72//72
f 40//40 84//84 39//39
f 87//87 84//84 40//40
f 72//72 85//85 90//90
f 88//88 74//74 89//89
f 79//79 74//74 88//88
f 40//40 93//93 87//87
f 93//93 40//40 195//195
f 93//93 195//195 55//55
f 96//96 86//86 87//87
f 87//87 92//92 96//96
f 86//86 95//95 91//91
f 95//95 86//86 96//96
f 90//90 79//79 88//88
f 92//92 93//93 55//55
f 92//92 98//98 96//96
f 95//95 97//97 94//94
f 78//78 101//101 77//77
f 94//94 78//78 79//79
f 97//97 96//96 99//99
f 78//78 94//94 100//100
f 94//94 97//97 100//100
f 102//102 104//104 98//98
f 104//104 105//105 99//99
f 82//82 101//101 100//100
f 105//105 106//106 97//97
f 98//98 92//92 55//55
f 98//98 55//55 103//103
f 107//107 56//56 152//152
f 108//108 102//102 103//103
f 119//119 109//109 111//111
f 7//7 111//111 109//109
f 125//125 121//121 111//111
f 1//1 111//111 7//7
f 113//113 110//110 1//1
f 26//26 109//109 119//119
f 121//121 119//119 111//111
f 129//129 114//114 113//113
f 27//27 26//26 115//115
f 115//115 26//26 119//119
f 120//120 117//117 119//119
f 141//141 117//117 120//120
f 123//123 141//141 120//120
f 122//122 120//120 121//121
f 125//125 122//122 121//121
f 112//112 124//124 122//122
f 125//125 111//111 110//110
f 124//124 112//112 114//114
f 123//123 124//124 127//127
f 150//150 126//126 128//128
f 112//112 125//125 110//110
f 130//130 150//150 128//128
f 54//54 52//52 133//133
f 116//116 115//115 118//118
f 50//50 29//29 116//116
f 118//118 50//50 116//116
f 131//131 51//51 132//132
f 135//135 133//133 131//131
f 136//136 131//131 132//132
f 134//134 136//136 132//132
f 137//137 133//133 135//135
f 118//118 117//117 141//141
f 141//141 134//134 118//118
f 142//142 134//134 141//141
f 143//143 134//134 142//142
f 138//138 135//135 136//136
f 142//142 127//127 143//143
f 127//127 147//147 143//143
f 143//143 147//147 144//144
f 187//187 145//145 146//146
f 140//140 145//145 187//187
f 150//150 148//148 126//126
f 126//126 148//148 127//127
f 148//148 196//196 147//147
f 146//146 144//144 147//147
f 147//147 196//196 146//146
f 149//149 196//196 148//148
f 149//149 150//150 130//130
f 58//58 54//54 151//151
f 139//139 58//58 151//151
f 107//107 58//58 139//139
f 139//139 151//151 137//137
f 156//156 159//159 1//1
f 160//160 159//159 156//156
f 159//159 197//197 1//1
f 198//198 113//113 1//1
f 197//197 198//198 1//1
f 159//159 171//171 197//197
f 129//129 113//113 198//198
f 171//171 170//170 198//198
f 83//83 153//153 68//68
f 198//198 197//197 171//171
f 170//170 129//129 198//198
f 174//174 161//161 81//81
f 83//83 81//81 155//155
f 83//83 155//155 153//153
f 157//157 162//162 160//160
f 161//161 185//185 162//162
f 185//185 165//165 162//162
f 165//165 164//164 162//162
f 167//167 168//168 169//169
f 170//170 163//163 167//167
f 164//164 171//171 158//158
f 158//158 171//171 159//159
f 129//129 170//170 130//130
f 171//171 164//164 163//163
f 82//82 106//106 172//172
f 106//106 105//105 179//179
f 179//179 173//173 106//106
f 175//175 104//104 102//102
f 177//177 105//105 104//104
f 172//172 180//180 178//178
f 172//172 174//174 82//82
f 172//172 179//179 174//174
f 172//172 182//182 180//180
f 173//173 182//182 172//172
f 105//105 177//177 179//179
f 194//194 186//186 175//175
f 176//176 175//175 183//183
f 177//177 183//183 191//191
f 184//184 185//185 179//179
f 191//191 184//184 177//177
f 188//188 183//183 187//187
f 191//191 188//188 190//190
f 165//165 193//193 163//163
f 190//190 184//184 191//191
f 184//184 190//190 165//165
f 190//190 193//193 165//165
f 149//149 192//192 189//189
f 196//196 149//149 189//189
f 189//189 188//188 146//146
f 196//196 189//189 146//146
f 166//166 192//192 168//168
f 193//193 189//189 192//192
f 193//193 190//190 189//189
f 193//193 192//192 166//166
f 168//168 149//149 130//130
f 194//194 108//108 107//107
f 186//186 194//194 140//140
# 392 faces, 0 coords texture

# End of File
